<svg width="170" height="177" viewBox="0 0 170 177" fill="none" xmlns="http://www.w3.org/2000/svg">
<path d="M97.9099 117.926C100.135 117.926 102.322 117.354 104.261 116.264L155.961 86.4325L169.403 94.1119L110.909 127.931L91.5582 139.155C87.57 141.37 85.2066 145.653 85.2066 150.083C85.2066 154.662 87.57 158.797 91.5582 161.012C93.4979 162.101 95.6852 162.673 97.9099 162.673C100.135 162.673 102.322 162.101 104.261 161.012L155.961 131.18L169.403 138.86L110.909 172.679C106.92 175.042 102.341 176.223 97.9099 176.223C93.4785 176.223 89.0471 175.042 84.9112 172.679C84.9112 172.679 14.1569 131.623 13.8615 131.476C5.7373 126.75 0.862793 118.332 0.862793 108.88C0.862793 99.7239 5.7373 91.306 13.5661 86.5801C5.58959 81.8543 0.862793 73.5841 0.862793 64.2801C0.862793 54.9762 5.88502 46.2629 13.8615 41.6848L84.9112 0.62915L169.403 49.5119L91.5582 94.4073C87.57 96.6225 85.2066 100.905 85.2066 105.336C85.2066 109.914 87.57 114.049 91.5582 116.264C93.4979 117.354 95.6852 117.926 97.9099 117.926Z" fill="#313848"/>
</svg>
